<?xml version="1.0" encoding="utf-8"?>
<!-- Generator: Adobe Illustrator 21.1.0, SVG Export Plug-In . SVG Version: 6.00 Build 0)  -->
<svg version="1.1" id="Layer_1" xmlns="http://www.w3.org/2000/svg" xmlns:xlink="http://www.w3.org/1999/xlink" x="0px" y="0px"
	 viewBox="0 0 100 125" style="enable-background:new 0 0 100 125;" xml:space="preserve">
<style type="text/css">
	.st0{fill:#FFFFFF;}
</style>
<g>
	<polygon class="st0" points="68.7,41.8 50,60.5 31.3,41.8 29.3,43.8 48,62.5 29.3,81.2 31.3,83.2 50,64.5 68.7,83.2 70.7,81.2 
		52,62.5 70.7,43.8 	"/>
	<path class="st0" d="M50,15C23.8,15,2.5,36.3,2.5,62.5S23.8,110,50,110s47.5-21.3,47.5-47.5S76.2,15,50,15z M50,107.2
		c-24.7,0-44.7-20-44.7-44.7s20-44.7,44.7-44.7s44.7,20,44.7,44.7S74.7,107.2,50,107.2z"/>
</g>
</svg>
