<svg id="Layer_1" data-name="Layer 1" xmlns="http://www.w3.org/2000/svg" viewBox="0 0 560.94 560.94"><defs><style>.cls-1{fill:#fff;}</style></defs><title>FacebookLogo</title><path class="cls-1" d="M304.05,24v1.5a279,279,0,0,1,108.59,536A279,279,0,0,1,195.47,47.44,277.22,277.22,0,0,1,304.05,25.51V24m0,0C149.16,24,23.59,149.59,23.59,304.48S149.16,585,304.05,585,584.52,459.38,584.52,304.48,459,24,304.05,24Z" transform="translate(-23.59 -24.02)"/><path class="cls-1" d="M317.3,437.88V317.13h40.25l6.29-49.05H317.3v-32.4a20.42,20.42,0,0,1,20.42-20.42H365.1V172.49s-10.85-.95-21.38-1.26c-10.81-.32-21.38,0-23.9,0-5,0-20.12,0-35.22,15.09C264.48,206.45,267,229.09,267,237.89v30.19H226.74v49.05H267V437.88Z" transform="translate(-23.59 -24.02)"/></svg>