<svg id="Layer_1" data-name="Layer 1" xmlns="http://www.w3.org/2000/svg" viewBox="0 0 591.38 591.38"><defs><style>.cls-1{fill:#fff;}</style></defs><title>facebook-ico</title><path class="cls-1" d="M300,15.83A283.77,283.77,0,0,1,410.46,560.92,283.77,283.77,0,0,1,189.62,38.12,281.9,281.9,0,0,1,300,15.83m0-12C136.74,3.83,4.35,136.21,4.35,299.52S136.74,595.21,300,595.21,595.73,462.82,595.73,299.52,463.35,3.83,300,3.83Z" transform="translate(-4.35 -3.83)"/><path class="cls-1" d="M314,440.15V312.85h42.43l6.63-51.71H314V227a21.53,21.53,0,0,1,21.53-21.53H364.4V160.36s-11.44-1-22.54-1.33c-11.4-.34-22.54,0-25.19,0-5.3,0-21.22,0-37.13,15.91C258.32,196.16,261,220,261,229.31v31.82H218.54v51.71H261v127.3Z" transform="translate(-4.35 -3.83)"/></svg>