<svg id="Layer_1" data-name="Layer 1" xmlns="http://www.w3.org/2000/svg" viewBox="0 0 589.78 589.78"><defs><style>.cls-1{fill:#fff;stroke:#fff;stroke-miterlimit:10;stroke-width:0.24px;}</style></defs><title>InstagramIcon</title><path class="cls-1" d="M168.76,5.47h262A163.76,163.76,0,0,1,594.53,169.23v262A163.76,163.76,0,0,1,430.77,595h-262A163.76,163.76,0,0,1,5,431.24v-262A163.76,163.76,0,0,1,168.76,5.47Zm0,32.75a130.36,130.36,0,0,0-131,131v262a130.36,130.36,0,0,0,131,131h262a130.36,130.36,0,0,0,131-131v-262a130.36,130.36,0,0,0-131-131ZM463.53,87.35a32.75,32.75,0,1,1-32.75,32.75A32.75,32.75,0,0,1,463.53,87.35ZM299.77,161c76.68,0,139.2,62.51,139.2,139.2s-62.51,139.2-139.2,139.19-139.2-62.51-139.2-139.2S223.08,161,299.77,161Zm0,32.75A106.44,106.44,0,1,0,406.21,300.23,106.2,106.2,0,0,0,299.77,193.79Z" transform="translate(-4.88 -5.35)"/></svg>