<?xml version="1.0" encoding="utf-8"?>
<!-- Generator: Adobe Illustrator 21.1.0, SVG Export Plug-In . SVG Version: 6.00 Build 0)  -->
<svg version="1.1" id="Layer_1" xmlns="http://www.w3.org/2000/svg" xmlns:xlink="http://www.w3.org/1999/xlink" x="0px" y="0px"
	 viewBox="0 0 600 600" style="enable-background:new 0 0 600 600;" xml:space="preserve">
<style type="text/css">
	.st0{fill:none;stroke:#FFFFFF;stroke-width:5;stroke-miterlimit:10;}
	.st1{fill:#FFFFFF;stroke:#FFFFFF;stroke-width:0.75;stroke-miterlimit:10;}
</style>
<circle class="st0" cx="298.2" cy="298" r="293"/>
<g transform="translate(0,-952.36218)">
	<path class="st1" d="M230.2,1097.4h136c46.9,0,85,38,85,85v136c0,46.9-38,85-85,85h-136c-46.9,0-85-38-85-85v-136
		C145.2,1135.5,183.3,1097.4,230.2,1097.4z M230.2,1114.4c-37.8,0-68,30.2-68,68v136c0,37.8,30.2,68,68,68h136c37.8,0,68-30.2,68-68
		v-136c0-37.8-30.2-68-68-68H230.2z M383.1,1139.9c9.4,0,17,7.6,17,17c0,9.4-7.6,17-17,17c-9.4,0-17-7.6-17-17
		C366.1,1147.5,373.8,1139.9,383.1,1139.9z M298.2,1178.1c39.8,0,72.2,32.4,72.2,72.2s-32.4,72.2-72.2,72.2s-72.2-32.4-72.2-72.2
		S258.4,1178.1,298.2,1178.1z M298.2,1195.1c-30.6,0-55.2,24.6-55.2,55.2s24.6,55.2,55.2,55.2s55.2-24.6,55.2-55.2
		S328.8,1195.1,298.2,1195.1z"/>
</g>
</svg>
